<svg xmlns="http://www.w3.org/2000/svg" width="16" height="16" fill="none" viewBox="0 0 16 16">
    <path fill="#222" d="M11.05 8.025c-.268-.128-.543-.238-.822-.33.905-.68 1.49-1.76 1.49-2.976C11.719 2.669 10.05 1 8 1S4.281 2.668 4.281 4.719c0 1.217.588 2.299 1.494 2.978-.83.273-1.61.699-2.291 1.26-1.25 1.028-2.12 2.463-2.449 4.04-.102.493.02 1 .339 1.391.316.39.784.612 1.286.612h6.735c.302 0 .546-.245.546-.547 0-.302-.244-.547-.546-.547H2.66c-.234 0-.375-.13-.438-.208-.109-.134-.151-.308-.116-.479.568-2.726 2.972-4.717 5.749-4.784.048.002.096.002.145.002.049 0 .098 0 .146-.002.851.02 1.67.214 2.435.578.273.13.6.013.729-.26.13-.272.013-.598-.26-.728zM8.134 7.34h-.265C6.48 7.271 5.375 6.122 5.375 4.72 5.375 3.27 6.553 2.094 8 2.094s2.625 1.177 2.625 2.625c0 1.402-1.106 2.552-2.492 2.621z"/>
    <path fill="#222" d="M14.453 11.855H12.95v-1.503c0-.303-.245-.547-.547-.547-.302 0-.546.245-.546.547v1.503h-1.504c-.303 0-.547.245-.547.547 0 .302.245.547.547.547h1.503v1.504c0 .302.245.547.547.547.302 0 .547-.245.547-.547V12.95h1.504c.302 0 .547-.245.547-.547 0-.302-.245-.546-.547-.546z"/>
</svg>
