<svg xmlns="http://www.w3.org/2000/svg" width="16" height="16" fill="none" viewBox="0 0 16 16">
    <path fill="#222" fill-rule="evenodd" d="M10.276 1H2v14h12V4.403L10.276 1zm.15.797l2.702 2.47h-2.703v-2.47zm-7.915-.33v13.066h10.978v-9.8H9.915V1.467H2.51z" clip-rule="evenodd"/>
    <path fill="#222" d="M11.893 6.833H9.671c-.077 0-.139.112-.139.25 0 .139.062.25.139.25h2.222c.077 0 .139-.111.139-.25 0-.138-.062-.25-.139-.25zM6.756 5.856L5.323 7.003l-.456-.455c-.13-.13-.341-.13-.471 0-.13.13-.13.34 0 .47l.666.668c.065.064.15.097.236.097.073 0 .147-.024.208-.073l1.667-1.333c.144-.115.167-.325.052-.469-.115-.144-.325-.167-.469-.052zM6.756 9.94l-1.433 1.147-.456-.456c-.13-.13-.341-.13-.471 0-.13.13-.13.341 0 .471l.666.667c.065.065.15.098.236.098.073 0 .147-.024.208-.073l1.667-1.334c.144-.115.167-.325.052-.468-.115-.144-.325-.167-.469-.052zM11.893 10.916H9.671c-.077 0-.139.112-.139.25 0 .139.062.25.139.25h2.222c.077 0 .139-.111.139-.25 0-.138-.062-.25-.139-.25z"/>
</svg>
