<svg width="16" height="16" fill="none" viewBox="0 0 16 16" xmlns="http://www.w3.org/2000/svg">
    <path d="M13.542 15H2.458A1.46 1.46 0 0 1 1 13.542V2.458A1.46 1.46 0 0 1 2.458 1h11.084A1.46 1.46 0 0 1 15 2.458v11.084A1.46 1.46 0 0 1 13.542 15zM2.458 1.583a.876.876 0 0 0-.875.875v11.084c0 .482.393.875.875.875h11.084a.876.876 0 0 0 .875-.875V2.458a.876.876 0 0 0-.875-.875H2.458z" fill="#222"/>
    <path d="M11.792 11.5h-5.25a.292.292 0 0 1-.216-.096L3.409 8.196a.292.292 0 0 1 0-.393l2.917-3.208a.294.294 0 0 1 .216-.095h5.25c.482 0 .875.393.875.875v5.25a.876.876 0 0 1-.875.875zm-5.121-.583h5.12c.161 0 .292-.131.292-.292v-5.25a.292.292 0 0 0-.291-.292H6.67L4.019 8l2.652 2.917z" fill="#222"/>
    <path d="M10.625 9.458a.293.293 0 0 1-.207-.085L8.085 7.04a.292.292 0 0 1 .412-.413l2.334 2.334a.292.292 0 0 1-.206.497z" fill="#222"/>
    <path d="M8.292 9.458a.292.292 0 0 1-.207-.498l2.333-2.333a.292.292 0 0 1 .413.413L8.497 9.373a.29.29 0 0 1-.205.085z" fill="#222"/>
</svg>
