<svg xmlns="http://www.w3.org/2000/svg" width="16" height="16" fill="none" viewBox="0 0 16 16">
    <path fill="#222" fill-rule="evenodd" d="M5.2 3.8H3.8v-.7H2.4v2.1h11.2V3.1h-1.4v.7h-1.4v-.7H5.2v.7zm8.4 2.8H2.4v7h11.2v-7zm-2.8-4.9H5.2V1H3.8v.7H2.4c-.773 0-1.4.627-1.4 1.4v10.5c0 .773.627 1.4 1.4 1.4h11.2c.773 0 1.4-.627 1.4-1.4V3.1c0-.773-.627-1.4-1.4-1.4h-1.4V1h-1.4v.7zM5.9 9.4H4.5V8h1.4v1.4zm1.4 0h1.4V8H7.3v1.4zm4.2 0h-1.4V8h1.4v1.4zm-7 2.8h1.4v-1.4H4.5v1.4zm4.2 0H7.3v-1.4h1.4v1.4z" clip-rule="evenodd"/>
</svg>
