<svg xmlns="http://www.w3.org/2000/svg" width="16" height="16" fill="none" viewBox="0 0 16 16">
    <path fill="#222" fill-rule="evenodd" d="M12.236 13.662l1.41-1.411-.496-1.806.216-.517L15 9.007V7.01l-1.63-.925-.212-.516.503-1.807-1.412-1.41-1.805.497-.516-.216L9.006 1H7.011l-.926 1.63-.516.212-1.806-.504-1.41 1.41.497 1.806-.216.515L1 6.991v1.995l1.628.928.213.517-.503 1.805 1.41 1.41 1.806-.496.516.216L6.992 15h1.994l.927-1.627.517-.213 1.806.503zm.125-4.628l-.555 1.325.417 1.515-.362.362-1.512-.421-1.325.547-.778 1.364h-.512l-.77-1.365-1.324-.555-1.516.417-.361-.361.421-1.512-.547-1.326-1.364-.778v-.512l1.366-.77.555-1.324-.417-1.516.36-.36 1.512.421 1.326-.546.776-1.366h.512l.77 1.366 1.324.555 1.516-.417.362.361-.42 1.512.546 1.326 1.366.776v.511l-1.366.771zM8 10.544c-1.406 0-2.546-1.139-2.546-2.545S6.594 5.454 8 5.454s2.545 1.14 2.545 2.545c0 1.406-1.14 2.546-2.545 2.546zM9.273 8c0 .703-.57 1.273-1.273 1.273S6.727 8.703 6.727 8 7.297 6.727 8 6.727 9.273 7.297 9.273 8z" clip-rule="evenodd"/>
</svg>
