<svg xmlns="http://www.w3.org/2000/svg" width="20" height="13" viewBox="0 0 20 13">
    <g fill="#000" fill-rule="evenodd">
        <path d="M14.23 6.499a4.244 4.244 0 1 1-8.488 0 4.244 4.244 0 0 1 8.488 0zm-1.22 0a3.024 3.024 0 1 1-6.048 0 3.024 3.024 0 0 1 6.048 0z"/>
        <path d="M9.986 0C4.404 0 1.437 3.608.352 5.305a2.2 2.2 0 0 0 0 2.387c1.085 1.698 4.052 5.305 9.634 5.305 5.582 0 8.55-3.607 9.635-5.305a2.2 2.2 0 0 0 0-2.387C18.535 3.608 15.568 0 9.986 0zM1.47 6.02c.978-1.53 3.592-4.694 8.516-4.694 4.924 0 7.539 3.164 8.517 4.693.191.299.191.66 0 .959-.978 1.53-3.593 4.693-8.517 4.693-4.924 0-7.538-3.163-8.516-4.693a.874.874 0 0 1 0-.959z"/>
    </g>
</svg>
