<svg xmlns="http://www.w3.org/2000/svg" width="60" height="57" viewBox="0 0 60 57">
    <path fill="#000" fill-rule="nonzero" d="M37.2 45c.15.075.3.075.375.075.15 0 .3-.075.45-.15l6.525-3.9a.895.895 0 0 0 .375-.675c0-.3-.15-.525-.375-.675l-6.525-3.9a.812.812 0 0 0-.825 0c-.225.15-.45.45-.45.675v7.8c0 .375.15.6.45.75zm1.2-7.05l4.125 2.475L38.4 42.9v-4.95zM20.925 10.875h8.1c.45 0 .825-.375.825-.825a.832.832 0 0 0-.825-.825h-8.1a.832.832 0 0 0-.825.825c0 .525.375.825.825.825zm0 6.6h15.9c.45 0 .825-.375.825-.825a.832.832 0 0 0-.825-.825h-15.9a.832.832 0 0 0-.825.825c0 .45.375.825.825.825zm-11.55 25.8a3.6 3.6 0 0 0 0-7.2c-1.95 0-3.6 1.65-3.6 3.6 0 1.95 1.65 3.6 3.6 3.6zm0-5.625c1.125 0 2.025.9 2.025 2.025S10.5 41.7 9.375 41.7s-2.025-.9-2.025-2.025c.075-1.125.975-2.025 2.025-2.025zM59.25 21.825H44.925V9.9a.852.852 0 0 0-.225-.6L35.4.225A.852.852 0 0 0 34.8 0H14.25a.832.832 0 0 0-.825.825v30.6H.825A.832.832 0 0 0 0 32.25V55.2c0 .45.375.825.825.825H28.95c.45 0 .825-.375.825-.825v-2.7h29.4c.45 0 .825-.375.825-.825V22.65c0-.45-.3-.825-.75-.825zM35.4 2.55l6.9 6.75h-6.9V2.55zm-20.325-.9H33.75v8.4c0 .45.375.825.825.825h8.7v10.95h-22.35a.832.832 0 0 0-.825.825v8.475c0 .075 0 .225.075.3h-5.1V1.65zM28.2 54.45H1.65v-1.275l5.7-5.7 2.925 2.925c.3.3.825.3 1.125 0l9.3-9.3 7.5 7.5v5.85zm0-8.175l-6.9-6.9c-.3-.3-.825-.3-1.125 0l-9.3 9.3L7.95 45.75c-.3-.3-.825-.3-1.125 0l-5.1 5.1V33.075H28.2v13.2zm30.225 4.65h-28.65V32.25a.832.832 0 0 0-.825-.825h-7.275c0-.075.075-.225.075-.3v-1.95h36.675v21.75zm0-23.325H21.75v-4.125h36.675V27.6z"/>
</svg>
