<svg xmlns="http://www.w3.org/2000/svg" width="16" height="16" fill="none" viewBox="0 0 16 16">
    <path fill="#222" fill-rule="evenodd" d="M7.203 5.437c.363-.489.493-1.004.083-1.458-.92-1.288-1.54-2.085-1.928-2.468C4.62.78 3.405.88 2.766 1.51c-.344.338-.46.455-.812.813-1.964 1.965-.767 6.119 2.417 9.306 3.184 3.186 7.337 4.385 9.305 2.415.326-.313.601-.589.818-.819.627-.662.722-1.822-.004-2.577-.372-.386-1.131-.975-2.473-1.935-.412-.368-.899-.288-1.346.005-.215.14-.371.283-.667.58l-.536.536c-.07.07-1.03-.41-1.961-1.342C6.575 7.559 6.095 6.6 6.165 6.53l.537-.537c.094-.094.139-.14.196-.2.12-.126.219-.24.305-.356zm3.255 5.388l.537-.537c.162-.163.268-.263.353-.332 1.176.845 1.857 1.376 2.135 1.665.167.173.141.49-.004.643-.2.213-.462.474-.782.783-1.273 1.273-4.626.305-7.336-2.407-2.71-2.713-3.677-6.067-2.414-7.33.35-.357.462-.469.8-.802.128-.125.473-.153.628 0 .299.294.853 1.005 1.67 2.141-.043.052-.096.112-.16.18-.047.049-.086.088-.172.174l-.536.537c-.913.912-.136 2.465 1.34 3.943 1.476 1.476 3.03 2.254 3.941 1.342zM12 2h2v1h-2v2h-1V3H9V2h2V0h1v2z" clip-rule="evenodd"/>
</svg>
