<svg xmlns="http://www.w3.org/2000/svg" width="16" height="16" fill="none" viewBox="0 0 16 16">
    <path fill="#000" fill-rule="evenodd" d="M6.254 1h3.819c.703 0 1.272.57 1.272 1.273v.636h1.91c.702 0 1.272.57 1.272 1.273v1.273c0 .702-.57 1.272-1.273 1.272h-.05l-.586 7c0 .703-.57 1.273-1.273 1.273H4.982c-.703 0-1.273-.57-1.27-1.22l-.589-7.053h-.05c-.703 0-1.273-.57-1.273-1.272V4.182c0-.703.57-1.273 1.273-1.273h1.909v-.636C4.982 1.57 5.552 1 6.254 1zM4.982 4.182h-1.91v1.273h10.183V4.182H4.982zm0 9.545l-.582-7h7.527l-.58 6.947-.002.053H4.982zm5.09-11.454v.636H6.255v-.636h3.819z" clip-rule="evenodd"/>
</svg>
