<svg xmlns="http://www.w3.org/2000/svg" width="20" height="16" viewBox="0 0 20 16">
    <g fill="#000" fill-rule="evenodd">
        <path d="M14.23 7.621a4.244 4.244 0 1 1-8.488 0 4.244 4.244 0 0 1 8.488 0zm-1.22 0a3.024 3.024 0 1 1-6.048 0 3.024 3.024 0 0 1 6.048 0z"/>
        <path d="M9.986 1.123c-5.582 0-8.549 3.607-9.634 5.305a2.2 2.2 0 0 0 0 2.387c1.085 1.697 4.052 5.305 9.634 5.305 5.582 0 8.55-3.608 9.635-5.305a2.2 2.2 0 0 0 0-2.387c-1.086-1.698-4.053-5.305-9.635-5.305zM1.47 7.142c.978-1.53 3.592-4.693 8.516-4.693 4.924 0 7.539 3.163 8.517 4.693.191.298.191.66 0 .958-.978 1.53-3.593 4.694-8.517 4.694-4.924 0-7.538-3.164-8.516-4.694a.874.874 0 0 1 0-.958z"/>
        <path d="M17.411.194a.663.663 0 0 1 0 .938L3.495 15.048a.663.663 0 1 1-.938-.938L16.473.195a.663.663 0 0 1 .938 0z"/>
    </g>
</svg>
