<svg xmlns="http://www.w3.org/2000/svg" width="16" height="16" fill="none" viewBox="0 0 16 16">
    <path fill="#222" fill-rule="evenodd" d="M14.364 7.355c0-.181.127-.302.318-.302.19 0 .318.12.318.302v3.715c0 .393-.19.785-.477 1.057l-1.496 1.42c-.286.302-.7.453-1.113.453H1.955C1.414 14 1 13.607 1 13.094v-5.74c0-.18.127-.301.318-.301s.318.12.318.302v5.739c0 .181.128.302.319.302H11.5c.35 0 .636-.272.636-.604v-.604c0-.514.414-.907.955-.907h.636c.35 0 .637-.271.637-.604V7.355zm-1.45 5.709c-.008.03-.014.057-.014.084L14.109 12c-.095.03-.159.03-.223.03h-.636c-.19 0-.318.121-.318.302v.604c0 .05-.01.091-.018.128zM11.818 2.884h2.228c.54 0 .954.383.954.884v2.358c0 .177-.127.295-.318.295H1.318c-.19 0-.318-.118-.318-.295V3.768c0-.5.414-.884.955-.884h2.227v-.59c0-.176.127-.294.318-.294.19 0 .318.118.318.295v.59h6.364v-.59c0-.177.127-.295.318-.295.19 0 .318.118.318.295v.59zM1.636 5.832h12.728V3.768c0-.176-.128-.294-.319-.294h-2.227v.678c.191.088.318.294.318.5 0 .325-.286.59-.636.59-.35 0-.636-.265-.636-.59 0-.206.127-.412.318-.5v-.678H4.818v.678c.191.088.318.294.318.5 0 .325-.286.59-.636.59-.35 0-.636-.265-.636-.59 0-.206.127-.412.318-.5v-.678H1.955c-.191 0-.319.118-.319.294v2.064z" clip-rule="evenodd"/>
    <ellipse cx="6.333" cy="8.316" fill="#222" rx=".667" ry=".632"/>
    <ellipse cx="9" cy="8.316" fill="#222" rx=".667" ry=".632"/>
    <ellipse cx="12.333" cy="8.316" fill="#222" rx=".667" ry=".632"/>
    <ellipse cx="4.333" cy="11.474" fill="#222" rx=".667" ry=".632"/>
    <ellipse cx="6.333" cy="11.474" fill="#222" rx=".667" ry=".632"/>
    <ellipse cx="9" cy="11.474" fill="#222" rx=".667" ry=".632"/>
</svg>
