<svg xmlns="http://www.w3.org/2000/svg" width="16" height="16" fill="none" viewBox="0 0 16 16">
    <path fill="#222" d="M10.34 3.637H7.074l.755-.706c.228-.213.228-.558 0-.771-.228-.213-.597-.213-.825 0l-1.75 1.636-.039.04-.015.02-.019.023-.015.024-.014.022-.013.024-.011.024-.01.024-.01.026-.006.025c-.003.01-.006.018-.007.027l-.005.029-.004.024c-.002.018-.003.035-.003.053v.001l.003.054.004.024.005.028c.001.01.004.018.007.027l.006.025.01.026.01.024c.003.009.007.016.011.024l.013.025.014.022.015.024.019.023.015.02.04.04 1.75 1.636c.227.213.596.213.824 0 .228-.213.228-.559 0-.772l-.754-.705h3.258c1.936 0 3.5 1.464 3.5 3.273 0 .795-.339 1.542-.933 2.098-.228.213-.227.558 0 .771.229.213.598.213.826 0C14.536 10.11 15 9.087 15 8c0-2.41-2.084-4.36-4.66-4.363zM10.8 12.144l.018-.023.016-.024.014-.022.013-.025.011-.023.01-.025.01-.026.006-.025.007-.026c.003-.01.004-.02.005-.03l.004-.023c.004-.036.004-.072 0-.108l-.004-.024c-.001-.01-.002-.019-.005-.029l-.007-.027-.006-.024-.01-.026-.01-.025-.011-.023-.013-.025-.014-.022-.015-.024-.019-.023-.016-.02c-.011-.013-.024-.027-.038-.04l-1.75-1.636c-.228-.213-.597-.213-.825 0-.228.213-.228.558 0 .771l.754.706H5.667c-1.936 0-3.5-1.464-3.5-3.273 0-.795.339-1.542.933-2.098.227-.213.227-.558 0-.771-.229-.213-.598-.213-.826 0C1.464 5.89 1 6.912 1 8c0 2.41 2.084 4.36 4.66 4.363h3.265l-.754.706c-.228.213-.228.558 0 .771.228.213.597.213.825 0l1.75-1.636c.014-.013.026-.027.038-.04l.016-.02z"/>
</svg>
