<svg xmlns="http://www.w3.org/2000/svg" width="16" height="16" fill="none" viewBox="0 0 16 16">
    <path fill="#000" d="M14.83 4.088L11.912 1.17C11.803 1.06 11.655 1 11.5 1H4.125c-.322 0-.583.261-.583.583 0 .322.261.584.583.584h5.042v3.5H4.792V1.583c0-.322-.262-.583-.584-.583H2.75C1.785 1 1 1.785 1 2.75v10.5c0 .965.785 1.75 1.75 1.75h10.5c.965 0 1.75-.785 1.75-1.75V4.5c0-.155-.062-.303-.17-.412zm-3.622 9.745H4.792v-3.208h6.416v3.208zm2.625-.583c0 .322-.261.583-.583.583h-.875v-3.791c0-.322-.261-.584-.583-.584H4.208c-.322 0-.583.262-.583.584v3.791H2.75c-.322 0-.583-.261-.583-.583V2.75c0-.322.261-.583.583-.583h.875V6.25c0 .322.261.583.583.583H9.75c.322 0 .583-.261.583-.583V2.167h.925l2.575 2.575v8.508z"/>
</svg>
