<svg xmlns="http://www.w3.org/2000/svg" width="16" height="16" fill="none" viewBox="0 0 16 16">
    <path fill="#222" fill-rule="evenodd" d="M11.106 1c.458 0 .898.183 1.219.506l2.17 2.171c.323.323.505.762.505 1.219 0 .457-.182.895-.505 1.218L6.57 14.037c-.489.564-1.182.91-1.976.965H1v-.7l.002-2.95c.06-.739.403-1.425.927-1.887l7.958-7.958c.322-.324.761-.507 1.22-.507zM4.545 13.603c.374-.026.722-.2 1.001-.52L10.84 7.79 8.212 5.162l-5.325 5.323c-.283.25-.459.601-.487.923v2.194l2.145.001zm4.657-9.431L11.83 6.8l1.675-1.676c.061-.06.095-.143.095-.228 0-.086-.034-.168-.095-.229l-2.172-2.173c-.06-.06-.142-.094-.227-.094-.085 0-.166.034-.226.094L9.202 4.172z" clip-rule="evenodd"/>
</svg>
