<svg xmlns="http://www.w3.org/2000/svg" width="16" height="16" fill="none" viewBox="0 0 16 16">
    <path fill="#222" d="M13.609 15H2.39C1.624 15 1 14.35 1 13.551V3.45C1 2.649 1.624 2 2.391 2H13.61c.767 0 1.39.65 1.39 1.449v9.743l.001.36C15 14.35 14.376 15 13.609 15zM2.39 2.72c-.386 0-.7.327-.7.729V13.55c0 .402.314.73.7.73H13.61c.378 0 .688-.315.7-.707V3.45c0-.402-.314-.73-.7-.73H2.39z"/>
    <path fill="#222" d="M4.32 4C4.143 4 4 3.855 4 3.678V1.32c0-.177.143-.32.32-.32.177 0 .32.143.32.32V3.68c0 .177-.143.32-.32.32zM11.32 4c-.177 0-.32-.144-.32-.321V1.32c0-.177.143-.32.32-.32.178 0 .32.143.32.32V3.68c0 .177-.143.32-.32.32z"/>
    <circle cx="5" cy="5.75" r=".75" fill="#222"/>
    <circle cx="5" cy="8.75" r=".75" fill="#222"/>
    <circle cx="5" cy="11.75" r=".75" fill="#222"/>
    <circle cx="8" cy="5.75" r=".75" fill="#222"/>
    <circle cx="8" cy="8.75" r=".75" fill="#222"/>
    <circle cx="8" cy="11.75" r=".75" fill="#222"/>
    <circle cx="11" cy="5.75" r=".75" fill="#222"/>
    <circle cx="11" cy="8.75" r=".75" fill="#222"/>
    <circle cx="11" cy="11.75" r=".75" fill="#222"/>
</svg>
