<svg width="16" height="16" viewBox="0 0 16 16" fill="none" xmlns="http://www.w3.org/2000/svg">
<path d="M9.2001 6.7998H5.1001V7.7998H9.2001V6.7998Z" fill="#222222"/>
<path d="M8.0001 8.7002H5.1001V9.7002H8.0001V8.7002Z" fill="#222222"/>
<path d="M7.5 12.2H2.3V5.8H13.8V8H15V3.3C15 2.6 14.4 2 13.7 2H2.3C1.6 2 1 2.6 1 3.3V12.2C1 12.9 1.6 13.5 2.3 13.5H7.5V12.2ZM2.3 3.3H13.8V4.6H2.3V3.3Z" fill="#222222"/>
<path d="M4.19995 8.7002H3.19995V9.7002H4.19995V8.7002Z" fill="#222222"/>
<path d="M7.0001 10.6001H5.1001V11.6001H7.0001V10.6001Z" fill="#222222"/>
<path d="M4.19995 6.7998H3.19995V7.7998H4.19995V6.7998Z" fill="#222222"/>
<path d="M4.19995 10.6001H3.19995V11.6001H4.19995V10.6001Z" fill="#222222"/>
<path fill-rule="evenodd" clip-rule="evenodd" d="M13.6 14.3L14.3 13.6L14.1 12.7L14.2 12.4L15 12V11L14.2 10.5L14.1 10.2L14.4 9.3L13.7 8.6L12.8 8.8L12.5 8.7L12 8H11L10.5 8.8L10.2 8.9L9.4 8.7L8.7 9.4L8.9 10.3L8.8 10.6L8 11V12L8.8 12.5L8.9 12.8L8.6 13.7L9.3 14.4L10.2 14.2L10.5 14.3L11 15H12L12.5 14.2L12.8 14.1L13.6 14.3ZM13.7 12L13.4 12.7L13.6 13.5L13.4 13.7L12.6 13.5L12 13.7L11.6 14.4H11.3L11 13.7L10.3 13.4L9.5 13.6L9.3 13.4L9.5 12.6L9.3 12L8.6 11.6V11.3L9.3 11L9.6 10.3L9.4 9.6L9.6 9.4L10.4 9.6L11 9.3L11.4 8.6H11.7L12 9.3L12.7 9.6L13.5 9.4L13.7 9.6L13.5 10.4L13.8 11.1L14.5 11.5V11.8L13.7 12ZM11.5 12.8C10.8 12.8 10.2 12.2 10.2 11.5C10.2 10.8 10.8 10.2 11.5 10.2C12.2 10.2 12.8 10.8 12.8 11.5C12.8 12.2 12.2 12.8 11.5 12.8ZM12.1 11.5C12.1 11.9 11.8 12.1 11.5 12.1C11.1 12.1 10.9 11.8 10.9 11.5C10.9 11.1 11.2 10.9 11.5 10.9C11.9 10.9 12.1 11.1 12.1 11.5Z" fill="#222222"/>
</svg>
