<svg xmlns="http://www.w3.org/2000/svg" width="14" height="15" viewBox="0 0 14 15">
    <g fill="#333" fill-rule="evenodd">
        <path fill-rule="nonzero" d="M12.723 1.854H9.208v-.316C9.208.688 8.518 0 7.669 0H5.631c-.85 0-1.539.689-1.539 1.538v.316H.577a.577.577 0 0 0 0 1.154h.829v9.396a2.5 2.5 0 0 0 2.5 2.5h5.488a2.5 2.5 0 0 0 2.5-2.5V3.008h.83a.577.577 0 0 0 0-1.154zm-7.477-.316c0-.212.172-.384.385-.384h2.038c.213 0 .385.172.385.384v.316H5.246v-.316zm5.494 10.866c0 .743-.602 1.346-1.346 1.346H3.906a1.346 1.346 0 0 1-1.346-1.346V3.008h8.18v9.396z"/>
        <path d="M6 6h1.154v6.015H6zM4 6h1.154v6.015H4zM8 6h1.154v6.015H8z"/>
    </g>
</svg>
